# xmcd
#
# Track frame offsets:
#	150
#	19087
#	45452
#	61752
#	79985
#	98547
#	118775
#	133217
#	153125
#	169100
#	187725
#	205060
#	230710
#	248155
#
# Disc length: 3552 seconds
#
# Revision: 1
# Processed by: cddbd v1.5.1PL0 Copyright (c) Steve Scherf et al.
# Submitted via: CDex 1.50Beta5
#
DISCID=ad0dde0e
DTITLE=武田鉄矢 - 武田鉄矢大全集 Disc 2
DYEAR=1992
DGENRE=
TTITLE0=今度の旅は長くなりそうです
TTITLE1=未だ僕の旅
TTITLE2=もう春なんだなあ
TTITLE3=如月の風の中で
TTITLE4=駅におりたら
TTITLE5=コスモス
TTITLE6=少年期
TTITLE7=人生の秋に
TTITLE8=夢がとまらない
TTITLE9=唇をかみしめて
TTITLE10=RONIN
TTITLE11=浪漫
TTITLE12=男と女のラブゲーム
TTITLE13=男と女のはしご酒
EXTD=
EXTT0=
EXTT1=
EXTT2=
EXTT3=
EXTT4=
EXTT5=
EXTT6=
EXTT7=
EXTT8=
EXTT9=
EXTT10=
EXTT11=
EXTT12=
EXTT13=
PLAYORDER=
